<?xml version="1.0" encoding="UTF-8" standalone="no"?>
<svg xmlns="http://www.w3.org/2000/svg" xmlns:xlink="http://www.w3.org/1999/xlink" width="100.000mm" height="100.000mm" viewBox="148.481674 -362.151031 100.000000 100.000000">
    <path transform="matrix(1,0,0,-1,0,0)" style="stroke:none;fill:#000000;fill-rule:evenodd" d="M234.481689,362.151031L234.481689,354.651031C234.481689,353.270325,235.600983,352.151031,236.981689,352.151031L241.981659,352.151031C243.362366,352.151031,244.481659,353.270325,244.481659,354.651031L244.481659,362.151031L248.481674,362.151031L248.481674,262.151031L244.481659,262.151031L244.481659,269.651031C244.481659,271.031738,243.362366,272.151031,241.981659,272.151031L236.981689,272.151031C235.600983,272.151031,234.481689,271.031738,234.481689,269.651031L234.481689,262.151031L230.481659,262.151031L230.481659,272.151031C230.481659,274.912445,228.243088,277.151031,225.481659,277.151031L171.481659,277.151031C168.72023,277.151031,166.481659,274.912445,166.481659,272.151031L166.481659,262.151031L162.481644,262.151031L162.481644,269.651031C162.481644,271.031738,161.36235,272.151031,159.981644,272.151031L154.981674,272.151031C153.600967,272.151031,152.481674,271.031738,152.481674,269.651031L152.481659,262.151031L148.481674,262.151031L148.481674,362.151031L152.481674,362.151031L152.481674,354.651031C152.481674,353.270325,153.600967,352.151031,154.981674,352.151031L159.981644,352.151031C161.36235,352.151031,162.481644,353.270325,162.481644,354.651031L162.481644,362.151031L166.481659,362.151031L166.481659,352.151031C166.481659,349.389618,168.72023,347.151031,171.481659,347.151031L225.481659,347.151031C228.243088,347.151031,230.481659,349.389618,230.481659,352.151031L230.481659,362.151031L234.481689,362.151031zM244.481659,324.651031C244.481659,323.270325,243.362366,322.151031,241.981659,322.151031L236.981689,322.151031C235.600983,322.151031,234.481689,323.270325,234.481689,324.651031L234.481689,329.651031C234.481689,331.031738,235.600983,332.151031,236.981689,332.151031L241.981659,332.151031C243.362366,332.151031,244.481659,331.031738,244.481659,329.651031L244.481659,324.651031zM244.481659,294.651031C244.481659,293.270325,243.362366,292.151031,241.981659,292.151031L236.981689,292.151031C235.600983,292.151031,234.481689,293.270325,234.481689,294.651031L234.481689,299.651031C234.481689,301.031738,235.600983,302.151031,236.981689,302.151031L241.981659,302.151031C243.362366,302.151031,244.481659,301.031738,244.481659,299.651031L244.481659,294.651031zM162.481644,324.651031C162.481644,323.270325,161.36235,322.151031,159.981644,322.151031L154.981674,322.151031C153.600967,322.151031,152.481674,323.270325,152.481674,324.651031L152.481674,329.651031C152.481674,331.031738,153.600967,332.151031,154.981674,332.151031L159.981644,332.151031C161.36235,332.151031,162.481644,331.031738,162.481644,329.651031L162.481644,324.651031zM244.481659,339.651031C244.481659,338.270325,243.362366,337.151031,241.981659,337.151031L236.981689,337.151031C235.600983,337.151031,234.481689,338.270325,234.481689,339.651031L234.481689,344.651031C234.481689,346.031738,235.600983,347.151031,236.981689,347.151031L241.981659,347.151031C243.362366,347.151031,244.481659,346.031738,244.481659,344.651031L244.481659,339.651031zM162.481644,309.651031C162.481644,308.270325,161.36235,307.151031,159.981644,307.151031L154.981674,307.151031C153.600967,307.151031,152.481674,308.270325,152.481674,309.651031L152.481674,314.651031C152.481674,316.031738,153.600967,317.151031,154.981674,317.151031L159.981644,317.151031C161.36235,317.151031,162.481644,316.031738,162.481644,314.651031L162.481644,309.651031zM244.481659,309.651031C244.481659,308.270325,243.362366,307.151031,241.981659,307.151031L236.981689,307.151031C235.600983,307.151031,234.481689,308.270325,234.481689,309.651031L234.481689,314.651031C234.481689,316.031738,235.600983,317.151031,236.981689,317.151031L241.981659,317.151031C243.362366,317.151031,244.481659,316.031738,244.481659,314.651031L244.481659,309.651031zM244.481659,279.651031C244.481659,278.270325,243.362366,277.151031,241.981659,277.151031L236.981689,277.151031C235.600983,277.151031,234.481689,278.270325,234.481689,279.651031L234.481689,284.651031C234.481689,286.031738,235.600983,287.151031,236.981689,287.151031L241.981659,287.151031C243.362366,287.151031,244.481659,286.031738,244.481659,284.651031L244.481659,279.651031zM162.481644,294.651031C162.481644,293.270325,161.36235,292.151031,159.981644,292.151031L154.981674,292.151031C153.600967,292.151031,152.481674,293.270325,152.481674,294.651031L152.481674,299.651031C152.481674,301.031738,153.600967,302.151031,154.981674,302.151031L159.981644,302.151031C161.36235,302.151031,162.481644,301.031738,162.481644,299.651031L162.481644,294.651031zM162.481644,339.651031C162.481644,338.270325,161.36235,337.151031,159.981644,337.151031L154.981674,337.151031C153.600967,337.151031,152.481674,338.270325,152.481674,339.651031L152.481674,344.651031C152.481674,346.031738,153.600967,347.151031,154.981674,347.151031L159.981644,347.151031C161.36235,347.151031,162.481644,346.031738,162.481644,344.651031L162.481644,339.651031zM162.481644,279.651031C162.481644,278.270325,161.36235,277.151031,159.981644,277.151031L154.981674,277.151031C153.600967,277.151031,152.481674,278.270325,152.481674,279.651031L152.481674,284.651031C152.481674,286.031738,153.600967,287.151031,154.981674,287.151031L159.981644,287.151031C161.36235,287.151031,162.481644,286.031738,162.481644,284.651031L162.481644,279.651031zM230.481659,287.151031C230.481659,284.389618,228.243088,282.151031,225.481659,282.151031L171.481659,282.151031C168.72023,282.151031,166.481659,284.389618,166.481659,287.151031L166.481659,337.151031C166.481659,339.912445,168.72023,342.151031,171.481659,342.151031L225.481659,342.151031C228.243088,342.151031,230.481659,339.912445,230.481659,337.151031L230.481659,287.151031zM201.75473,314.338593C201.997635,314.235046,202.258469,314.180145,202.522491,314.176941L210.604156,314.176941C211.720001,314.176941,212.624573,315.081512,212.624573,316.197357C212.624573,317.313202,211.720001,318.217773,210.604156,318.217773L207.391693,318.217773L218.099915,328.905792C218.883087,329.700653,218.883087,330.979919,218.09407,331.768951C217.305054,332.557983,216.025787,332.557983,215.230927,331.77478L204.542908,321.066589L204.542908,324.279053C204.542908,325.394897,203.638336,326.299469,202.522491,326.299469C201.406647,326.299469,200.502075,325.394897,200.502075,324.279053L200.502075,316.197357C200.505264,315.93335,200.560181,315.672516,200.663696,315.429596C200.868729,314.935913,201.261047,314.54361,201.75473,314.338593zM194.440811,326.299469C193.324966,326.299469,192.420395,325.394897,192.420395,324.279053L192.420395,321.066589L181.732391,331.77478C180.937515,332.557983,179.658264,332.557983,178.869232,331.768951C178.080215,330.979919,178.080215,329.700653,178.863388,328.905792L189.571609,318.217773L186.359146,318.217773C185.243301,318.217773,184.33873,317.313202,184.33873,316.197357C184.33873,315.081512,185.243301,314.176941,186.359146,314.176941L194.440811,314.176941C194.704834,314.180145,194.965683,314.235046,195.208572,314.338593C195.702271,314.54361,196.094574,314.935913,196.299606,315.429596C196.403122,315.672516,196.458038,315.93335,196.461227,316.197357L196.461227,324.279053C196.461227,325.394897,195.556671,326.299469,194.440811,326.299469zM195.208572,309.974487C194.965683,310.078003,194.704834,310.132935,194.440811,310.136108L186.359146,310.136108C185.243301,310.136108,184.33873,309.231537,184.33873,308.115692C184.33873,306.999847,185.243301,306.095276,186.359146,306.095276L189.571609,306.095276L178.863388,295.407257C178.480896,295.027893,178.265747,294.511475,178.265747,293.972778C178.265747,293.434052,178.480896,292.917633,178.863388,292.538269C179.242752,292.155762,179.759171,291.940613,180.297882,291.940613C180.836609,291.940613,181.353012,292.155762,181.732391,292.538269L192.420395,303.24649L192.420395,300.034027C192.420395,298.918182,193.324966,298.013611,194.440811,298.013611C195.556671,298.013611,196.461227,298.918182,196.461227,300.034027L196.461227,308.115692C196.458038,308.37973,196.403122,308.640564,196.299606,308.883453C196.094574,309.377136,195.702271,309.76947,195.208572,309.974487zM207.391693,306.095276L210.604156,306.095276C211.720001,306.095276,212.624573,306.999847,212.624573,308.115692C212.624573,309.231537,211.720001,310.136108,210.604156,310.136108L202.522491,310.136108C202.258469,310.132935,201.997635,310.078003,201.75473,309.974487C201.261047,309.76947,200.868729,309.377136,200.663696,308.883453C200.560181,308.640564,200.505264,308.37973,200.502075,308.115692L200.502075,300.034027C200.502075,298.918182,201.406647,298.013611,202.522491,298.013611C203.638336,298.013611,204.542908,298.918182,204.542908,300.034027L204.542908,303.24649L215.230927,292.538269C215.610291,292.155762,216.126694,291.940643,216.665421,291.940643C217.204132,291.940643,217.720551,292.155762,218.099915,292.538269C218.482407,292.917633,218.697556,293.434052,218.697556,293.972778C218.697556,294.511475,218.482407,295.027893,218.099915,295.407257L207.391693,306.095276z"/>
</svg>
